<?xml version="1.0" standalone="no"?>
<!DOCTYPE svg PUBLIC "-//W3C//DTD SVG 1.1//EN" "http://www.w3.org/Graphics/SVG/1.1/DTD/svg11.dtd" >
<svg xmlns="http://www.w3.org/2000/svg" xmlns:xlink="http://www.w3.org/1999/xlink" version="1.1">
<metadata></metadata>
<defs>
<font id="continuum_lightregular" horiz-adv-x="1138" >
<font-face units-per-em="2048" ascent="1638" descent="-410" />
<missing-glyph horiz-adv-x="577" />
<glyph horiz-adv-x="0" />
<glyph unicode="&#xd;" horiz-adv-x="577" />
<glyph unicode=" "  horiz-adv-x="577" />
<glyph unicode="&#x09;" horiz-adv-x="577" />
<glyph unicode="&#xa0;" horiz-adv-x="577" />
<glyph unicode="!" horiz-adv-x="397" d="M143 59q0 20 16.5 41t37.5 21q18 0 38.5 -18.5t20.5 -45.5q0 -57 -57 -57q-56 0 -56 59zM164 197h72v1237h-72v-1237z" />
<glyph unicode="&#x22;" horiz-adv-x="483" d="M115 1004h71l39 430h-71zM258 1004l39 430h72l-39 -430h-72z" />
<glyph unicode="#" horiz-adv-x="1165" d="M115 473l16 72h229l72 344h-229l14 72h232l88 430h71l-88 -430h230l88 430h71l-88 -430h228l-13 -72h-231l-72 -344h230l-15 -72h-231l-90 -430h-72l90 430h-229l-90 -430h-72l90 430q-4 -2 -229 0zM432 545h230l71 344h-229z" />
<glyph unicode="$" horiz-adv-x="1112" d="M82 0v72h434v614h-65q-307 0 -357 236q-6 29 -6 63v125q0 158 94 241t254 83h80v122h72v-122h436v-72h-436v-604h86q154 0 244 -74q96 -80 96 -231v-146q0 -307 -344 -307h-82v-143h-72v143q-217 -4 -326 -4q-102 0 -108 4zM160 995q0 -243 291 -243h65v610h-82 q-274 0 -274 -250v-117zM588 72q80 -2 84 0q139 0 200 45q70 53 70 186v141q0 242 -268 242h-86v-614z" />
<glyph unicode="%" horiz-adv-x="1302" d="M72 1032v205q0 162 166 193q23 4 38 4h164q96 0 156.5 -51.5t60.5 -145.5v-205q0 -94 -60 -146t-157 -52h-164q-16 0 -38 4q-166 30 -166 194zM135 1030q0 -131 141 -131h177q117 10 135 96q4 12 4 35v209q0 20 -4 33q-18 86 -135 96h-177q-61 -6 -88 -22 q-37 -20 -49 -74q-4 -16 -4 -33v-209zM201 0l80 8l823 1430l-76 -4zM645 201v202q0 199 207 199h162q217 0 217 -199v-202q0 -166 -176 -193q-14 -4 -41 -4h-162q-29 0 -41 4q-166 29 -166 193zM711 199q0 -68 37 -99q30 -22 102 -30q6 -2 20 -2h136q12 0 20 2q61 6 88 22 q37 20 47 74q4 10 4 33v209q0 23 -4 32q-10 53 -47 74q-27 16 -88 23h-176q-61 -6 -88 -23q-37 -20 -49 -74q-2 -8 -2 -32v-209z" />
<glyph unicode="&#x26;" horiz-adv-x="1263" d="M86 301v107q0 117 74 192q49 51 178 115l45 22l-37 39l-14 15l-53 63q-88 104 -97 188q-2 20 -2 33v86q0 27 6 56q45 217 271 217h174q123 0 193.5 -79t70.5 -204v-111q-16 -90 -72 -147q-43 -43 -139 -92l-170 -86l500 -502q25 49 24 127v344h72v-338q0 -111 -45 -186 l156 -160l-103 2l-96 102q-94 -104 -283 -104h-315q-225 0 -309 174q-29 59 -29 127zM158 307q-6 -6 12 -61q57 -174 264 -174h307q127 0 187 43q18 14 41 41l-527 528l-110 -51q-174 -80 -174 -219v-107zM252 1075q0 -73 51 -149q6 -6 19 -23l133 -139l223 115 q145 74 145 198v78q0 176 -155 203q-25 4 -39 4h-176q-86 0 -143.5 -57.5t-57.5 -143.5v-86z" />
<glyph unicode="'" horiz-adv-x="339" d="M115 1004l39 430h71l-39 -430h-71z" />
<glyph unicode="(" horiz-adv-x="471" d="M143 379v676q0 244 164 379h92q-14 -12 -47 -43q-137 -139 -137 -336v-676q0 -33 10 -88q27 -145 125 -246q12 -12 49 -45h-92q-143 123 -162 328q-2 22 -2 51z" />
<glyph unicode=")" horiz-adv-x="471" d="M72 0q14 12 47 43q121 123 135 297q2 25 2 39v676q0 41 -8 88q-31 178 -176 291h94q162 -143 162 -379v-676q0 -88 -19 -148q-47 -152 -143 -231h-94z" />
<glyph unicode="*" horiz-adv-x="759" d="M72 1061l295 123l-295 114l51 91l252 -199l-45 317h100l-47 -313l256 201l49 -95l-303 -116l299 -121l-49 -84l-252 195l45 -316h-96l41 320l-248 -201z" />
<glyph unicode="+" horiz-adv-x="1325" d="M145 680v68h482v503h65v-503h490v-68h-490v-512h-63v512h-484z" />
<glyph unicode="," horiz-adv-x="307" d="M57 -195l97 183q-39 12 -43 53q-2 31 17 54.5t50 21.5q72 -4 72 -78q0 -10 -2 -23l-12 -30l-97 -183z" />
<glyph unicode="-" horiz-adv-x="655" d="M72 545v71h512v-71h-512z" />
<glyph unicode="." horiz-adv-x="256" d="M57 57q0 29 21.5 50.5t50.5 21.5q70 0 70 -72q0 -31 -19.5 -52t-50.5 -21q-29 0 -50.5 22t-21.5 51z" />
<glyph unicode="/" horiz-adv-x="1064" d="M72 0l837 1434h84l-837 -1434h-84z" />
<glyph unicode="0" horiz-adv-x="1325" d="M160 305q0 23 2 39v739q0 350 373 351h256q373 0 372 -351v-739q0 -344 -372 -344h-256q-166 0 -265 70q-111 80 -110 235zM233 350q0 -278 299 -278h263q297 0 297 278v727q0 285 -297 285h-263q-299 0 -299 -285v-727z" />
<glyph unicode="1" horiz-adv-x="1325" d="M627 0v1434h71v-1434h-71z" />
<glyph unicode="2" horiz-adv-x="1325" d="M197 0v434q0 154 100 236q92 76 250 75h231q195 0 258 146q20 47 21 92v139q0 14 -4 52q-39 188 -265 188h-587v72h592q150 0 242.5 -82t92.5 -230v-123q0 -160 -91 -242.5t-253 -82.5h-241q-121 0 -193 -56q-82 -63 -82 -180v-366h856v-72h-927z" />
<glyph unicode="3" horiz-adv-x="1325" d="M158 0v72h587q123 0 195 65.5t72 186.5v151q0 219 -260 219h-285v72h285q260 0 260 227v152q0 129 -72 178q-57 39 -195 39h-587v72h587q168 0 250 -64q88 -72 88 -235v-148q0 -197 -153 -252q154 -59 153 -256v-145q0 -117 -51 -193q-94 -141 -287 -141h-587z" />
<glyph unicode="4" horiz-adv-x="1325" d="M117 473q0 6 2 14v2l16 25l555 920h84l-569 -945h784v945h72v-1434h-72v418h-803q-35 0 -52 16.5t-17 38.5z" />
<glyph unicode="5" horiz-adv-x="1325" d="M195 0v72h559q301 0 301 247v232q0 152 -113 225q-66 43 -139 43h-608v615h933v-72h-862v-471h533q147 0 237 -96.5t90 -243.5v-234q0 -39 -10 -77q-63 -240 -350 -240h-571z" />
<glyph unicode="6" horiz-adv-x="1325" d="M143 344v764q0 176 127 266q84 59 222 60h690v-72h-690q-125 0 -187 -51q-90 -76 -90 -201v-215h608q160 0 256 -82q102 -88 103 -248v-248q0 -139 -93.5 -228t-232.5 -89h-367q-346 0 -346 344zM215 344q0 -239 231 -268q33 -4 46 -4h364q115 0 184.5 67.5t69.5 182.5 v239q0 123 -79 192.5t-204 69.5h-612v-479z" />
<glyph unicode="7" horiz-adv-x="1327" d="M188 1362v72h887q63 0 64 -37q0 -14 -9 -43q-2 -4 -6 -15l-639 -1339h-77l651 1362h-871z" />
<glyph unicode="8" horiz-adv-x="1325" d="M143 987v119q0 328 365 328h311q362 0 363 -328v-119q0 -84 -49.5 -153.5t-126.5 -104.5q80 -29 127 -102.5t47 -159.5v-141q0 -152 -93.5 -239t-246.5 -87h-355q-154 0 -246 87t-92 239v141q0 90 46.5 161.5t128.5 100.5q-141 53 -172 205q-3 12 -7 53zM215 991 q0 -118 127 -190q61 -35 150 -35h342q86 0 147 35q129 74 129 190v117q0 141 -115 217q-55 37 -176 37h-311q-123 0 -180 -37q-113 -72 -113 -217v-117zM219 326q6 -35 12 -68q55 -186 254 -186h355q119 0 193.5 67.5t74.5 186.5v141q0 51 -41 121q-61 106 -244 106h-323 q-182 0 -244 -106q-37 -63 -37 -121v-141z" />
<glyph unicode="9" horiz-adv-x="1325" d="M143 0v72h688q127 0 199 59q80 66 80 191v217h-608q-164 0 -256 82q-100 86 -101 247v248q0 137 92.5 227.5t229.5 90.5h369q162 0 254 -91.5t92 -252.5v-764q0 -174 -129 -267q-82 -59 -219 -59h-691zM217 872q0 -125 78 -193.5t203 -68.5h612v480q0 240 -229 268 q-33 4 -50 4h-362q-113 0 -182.5 -68.5t-69.5 -181.5v-240z" />
<glyph unicode=":" horiz-adv-x="284" d="M72 57q0 -74 69 -73q31 0 50.5 21.5t19.5 51.5q0 72 -70 72q-29 0 -49 -21.5t-20 -50.5zM72 662q0 27 21.5 48t47.5 21q72 0 72 -74q0 -29 -20.5 -50t-49.5 -21q-31 0 -51 22.5t-20 53.5z" />
<glyph unicode=";" horiz-adv-x="333" d="M72 -195l82 -2l96 183q2 10 10 30q2 12 2 23q0 74 -69 78q-33 2 -52.5 -20.5t-15.5 -55.5q4 -41 43 -53zM117 662q0 29 21.5 49t49.5 20q29 0 49.5 -21.5t20.5 -50.5q0 -31 -19.5 -52t-50.5 -21q-71 0 -71 76z" />
<glyph unicode="&#x3c;" horiz-adv-x="884" d="M0 684v64l831 286l23 -63l-741 -256l741 -256l-23 -64z" />
<glyph unicode="=" horiz-adv-x="1325" d="M145 475v68h1037v-68h-1037zM145 885v67h1037v-67h-1037z" />
<glyph unicode="&#x3e;" horiz-adv-x="884" d="M31 459l22 -64l832 289v64l-832 286l-22 -63l741 -256z" />
<glyph unicode="?" horiz-adv-x="983" d="M0 1362h600q123 0 188.5 -72.5t65.5 -195.5v-191q0 -25 -4 -37q-35 -178 -254 -178h-127q-197 0 -197 -178v-309h72v305q0 37 20.5 73.5t55.5 36.5h178q37 0 61 5q119 18 193 92.5t74 189.5v191q0 121 -39 186q-90 154 -287 154h-600v-72zM254 59q0 20 14 41q23 18 41 19 q25 0 42.5 -19.5t17.5 -42.5q0 -57 -60 -57q-23 0 -41 18t-14 41z" />
<glyph unicode="@" horiz-adv-x="1277" d="M100 344v555q0 350 373 350h338q373 0 373 -350v-235q0 -340 -371 -345h-252q-72 0 -119 43.5t-47 114.5v82q0 74 44 118t118 44h252v14q0 92 -94 92h-318v74h301q184 0 185 -172v-244q0 -59 -19 -92q248 18 248 277v223q0 285 -297 285h-344q-299 0 -299 -285v-543 q0 -279 299 -278h344q297 0 297 278v10l72 -2v-14q0 -344 -373 -344h-338q-250 0 -336 172q-37 74 -37 172zM469 479q0 -88 90 -88h166q84 0 84 86v172h-254q-86 0 -86 -90v-80z" />
<glyph unicode="A" horiz-adv-x="1247" d="M0 0l561 1399q10 25 21 33q16 20 43 20q43 0 59 -53l563 -1399h-88l-164 422h-745l-162 -422h-88zM283 496h682l-342 882z" />
<glyph unicode="B" horiz-adv-x="1314" d="M143 0v1434h691q111 0 172 -27q72 -33 122 -119q43 -72 43 -178v-121q0 -217 -165 -278q166 -49 165 -271v-100q0 -160 -79.5 -250t-237.5 -90h-711zM215 72h621q236 0 262 221q2 16 2 41v102q0 238 -252 238h-633v-602zM219 745h625q229 0 258 207q0 6 2 19v16l-4 123 q-6 170 -121 227q-49 25 -141 25h-619v-617z" />
<glyph unicode="C" horiz-adv-x="1146" d="M143 328v796q0 150 90.5 230t239.5 80h602v-72h-600q-117 0 -188.5 -58.5t-71.5 -175.5v-796q0 -172 129 -236q47 -24 148 -24h8h571v-72h-571q-100 0 -138 8q-61 14 -120 68q-99 90 -99 252z" />
<glyph unicode="D" horiz-adv-x="1323" d="M143 0v1434h713q100 0 161.5 -34t119.5 -116q43 -61 43 -178v-760q0 -156 -86 -251t-242 -95h-709zM215 72h635q23 0 53 6q205 41 205 266v762q0 82 -33 133q-78 123 -223 123h-637v-1290z" />
<glyph unicode="E" horiz-adv-x="1185" d="M143 315v793q0 274 273 319q37 6 63 7h592v-72h-598q-25 0 -49 -4q-211 -35 -211 -250v-363h856l-2 -71h-852v-350q0 -117 70.5 -184.5t187.5 -67.5h594v-72h-602q-29 0 -64 6q-258 45 -258 309z" />
<glyph unicode="F" horiz-adv-x="1105" d="M143 0v1143q0 94 68 180q86 111 260 111h606v-72h-596q-115 0 -186 -57q-80 -63 -80 -175v-385h858v-71h-858v-674h-72z" />
<glyph unicode="G" horiz-adv-x="1308" d="M143 317v801q0 147 99 234q92 82 241 82h627v-72h-618q-125 0 -197 -57q-80 -63 -80 -187v-799q0 -170 145 -231q39 -16 123 -16h373q70 0 123 34q115 74 115 205v434h71v-423q0 -188 -145 -279q-70 -43 -164 -43h-375q-158 0 -248 80.5t-90 236.5z" />
<glyph unicode="H" horiz-adv-x="1323" d="M143 0v1434h72v-689h893v689h72v-1434h-72v674h-893v-674h-72z" />
<glyph unicode="I" horiz-adv-x="358" d="M143 0v1434h72v-1434h-72z" />
<glyph unicode="J" horiz-adv-x="552" d="M0 0v72h43q156 0 225.5 70.5t69.5 226.5v1065h72v-1059q0 -98 -13 -150q-27 -115 -131 -174q-92 -51 -219 -51h-47z" />
<glyph unicode="K" horiz-adv-x="1069" d="M143 0h72v1434h-72v-1434zM219 725q0 20 33 51l41 39l659 619h109l-758 -707l780 -727h-108l-725 676q-31 29 -31 49z" />
<glyph unicode="L" horiz-adv-x="1062" d="M143 334v1100h72v-1100q0 -152 92 -213q76 -49 238 -49h532v-72h-530q-143 0 -199 18q-115 39 -162 117q-43 72 -43 199z" />
<glyph unicode="M" horiz-adv-x="1716" d="M143 0l2 1405q0 45 41 45q23 0 37 -20q6 -8 27 -52l614 -1286l604 1292q2 6 11 19q29 47 55 47q39 0 39 -45v-1405h-72v1286l-592 -1261q-16 -35 -47 -35q-27 0 -39 26l-6 15l-18 30l-584 1227v-1288h-72z" />
<glyph unicode="N" horiz-adv-x="1314" d="M143 0v1403q6 45 45 45q23 0 58 -43q4 -6 12 -21l842 -1267v1317h71v-1346q0 -53 -2 -63q-8 -41 -36 -41q-8 0 -19.5 5t-21.5 17l-21 27l-10 12l-846 1276v-1321h-72z" />
<glyph unicode="O" horiz-adv-x="1288" d="M143 344v739q0 350 373 351h256q373 0 373 -351v-739q0 -344 -373 -344h-256q-373 0 -373 344zM215 350q0 -278 299 -278h262q297 0 297 278v727q0 285 -297 285h-262q-299 0 -299 -285v-727z" />
<glyph unicode="P" horiz-adv-x="1220" d="M143 0v1434h699q166 0 252 -93q16 -14 34 -41q49 -72 50 -141v-250q0 -164 -90.5 -252t-253.5 -88h-619v-569h-72zM215 641h629q262 0 262 270v228q0 104 -82 166q-74 57 -180 57h-629v-721z" />
<glyph unicode="Q" horiz-adv-x="1314" d="M143 338v758q0 113 33 178q39 74 131 123q70 37 219 37h265q147 0 217 -37q92 -49 131 -123q32 -64 32 -171v-7v-758q0 -240 -194 -313l-33 -13l205 -207h-94l-199 195h-330q-154 0 -219 35q-164 86 -164 303zM215 334q0 -262 311 -262h258q315 0 316 256v772 q0 262 -316 262h-258q-311 0 -311 -262v-766z" />
<glyph unicode="R" horiz-adv-x="1267" d="M143 0v1434h676q164 0 257 -82t93 -242v-192q0 -143 -88 -225.5t-231 -82.5h-506l815 -610h-123l-794 602q-14 6 -15 37q0 43 66 43h555q215 0 246 195q4 27 4 32v207q0 246 -279 246h-604v-1362h-72z" />
<glyph unicode="S" horiz-adv-x="1110" d="M86 987v121q0 160 98 246q92 80 254 80h586v-72h-588q-279 0 -278 -252v-111q0 -115 86 -182q49 -37 98 -47q25 -4 111 -4h221q156 0 251 -80t95 -231v-144q0 -154 -100 -237q-55 -45 -115 -62q-47 -12 -133 -12h-584v72h584q115 0 170 32q106 63 106 201v141 q0 244 -274 244h-219q-41 0 -62 2q-307 31 -307 295z" />
<glyph unicode="T" horiz-adv-x="917" d="M0 1362v72h918v-72h-424v-1362h-72v1362h-422z" />
<glyph unicode="U" horiz-adv-x="1310" d="M143 367v1067h72v-1047q0 -170 77 -242.5t249 -72.5h227q174 0 251 70.5t77 242.5v1049h71v-1067q0 -193 -112 -291q-61 -53 -135 -68q-43 -8 -150 -8h-231q-109 0 -150 8q-70 14 -132 65.5t-89 119.5q-25 61 -25 174z" />
<glyph unicode="V" horiz-adv-x="1187" d="M-14 1434h77l533 -1344l528 1344h78l-545 -1377q-4 -10 -22 -47q-18 -25 -39 -24q-12 0 -25.5 8t-35.5 63z" />
<glyph unicode="W" horiz-adv-x="1679" d="M29 1434h73l349 -1319l331 1263q18 70 60 70q23 0 39 -27q6 -10 14 -43l334 -1263l346 1319h76l-365 -1368q-10 -41 -18 -56q-14 -25 -35 -25q-12 0 -27 9q-20 12 -35 65l-329 1237l-336 -1237q-20 -75 -61 -75h-1q-20 0 -34 26q-8 12 -19 56z" />
<glyph unicode="X" horiz-adv-x="1120" d="M29 0l489 727l-477 707h86l434 -646l434 646h84l-473 -707l488 -727h-86l-447 666l-448 -666h-84z" />
<glyph unicode="Y" horiz-adv-x="1003" d="M-14 1434h84l432 -736l432 736h84l-481 -816v-618h-72v618z" />
<glyph unicode="Z" horiz-adv-x="1064" d="M55 47q0 30 25 59l838 1256h-842v72h862q66 0 66 -43q0 -29 -23 -62l-840 -1257h856v-72l-901 2q-41 6 -41 45z" />
<glyph unicode="[" horiz-adv-x="458" d="M143 0v1434h244v-72h-172v-1290h168v-72h-240z" />
<glyph unicode="\" horiz-adv-x="1064" d="M72 1434l837 -1434h84l-837 1434h-84z" />
<glyph unicode="]" horiz-adv-x="458" d="M72 0v72h172v1290h-168v72h239v-1434h-243z" />
<glyph unicode="^" horiz-adv-x="901" d="M53 686l377 637h57l377 -637h-110l-287 490q-2 2 -2 8l-2 14l-4 16v11l-2 -13l-4 -14l-4 -18v-6l-291 -488h-105z" />
<glyph unicode="_" horiz-adv-x="696" d="M0 -338h696v-72h-696v72z" />
<glyph unicode="`" horiz-adv-x="0" d="M383 1354h147l117 -142h-82z" />
<glyph unicode="a" horiz-adv-x="1177" d="M143 276v162q0 131 76 208t207 77h545v70q0 225 -232 225h-594v65h562q328 0 327 -303v-487q0 -137 -70.5 -215t-205.5 -78h-326q-145 0 -225 96q-64 71 -64 180zM207 281q0 -180 186 -213q23 -4 35 -5h332q209 0 209 213v383h-547q-8 0 -35 -4q-180 -29 -180 -215v-159z " />
<glyph unicode="b" horiz-adv-x="1187" d="M143 303v1129h64v-349h514q324 0 323 -311v-461q0 -150 -67 -225q-49 -55 -117 -74q-47 -12 -139 -12h-242q-14 0 -39 2q-137 12 -217 89t-80 212zM207 307q0 -244 289 -244h227q141 0 199.5 58.5t58.5 200.5v446q0 145 -104 213q-53 35 -152 35h-518v-709z" />
<glyph unicode="c" horiz-adv-x="929" d="M143 297v489q0 297 289 297h420v-65h-410q-236 0 -235 -221v-492q0 -139 96 -207q49 -35 164 -35h391v-63h-393q-117 0 -174 29q-148 73 -148 268z" />
<glyph unicode="d" horiz-adv-x="1187" d="M141 272q0 19 2 39v461q0 152 86 231.5t238 79.5h514v349h63v-1129q0 -303 -335 -303h-240q-96 0 -141 12q-84 23 -135.5 96.5t-51.5 163.5zM207 322q0 -143 58.5 -201t201.5 -58h225q8 0 23 3h20q246 27 246 241v709h-516q-98 0 -152 -35q-106 -72 -106 -213v-446z" />
<glyph unicode="e" horiz-adv-x="1120" d="M141 281q0 22 2 28v461q0 154 66.5 227.5t218.5 85.5q27 2 45 2l264 -2q168 -2 233.5 -78.5t65.5 -248.5v-29l-829 -362l4 -48q12 -143 59 -194q55 -59 193 -60h573v-63h-559q-145 0 -235 68q-100 76 -101 213zM207 436l760 332q4 33 4 43q-6 207 -262 207h-220 q-139 0 -204 -45q-78 -53 -78 -185v-352z" />
<glyph unicode="f" horiz-adv-x="432" d="M143 0v1145q0 252 226 285q29 4 45 4h90v-64h-84q-16 0 -37 -4q-145 -29 -172 -174q-4 -23 -4 -41v-68h297v-65h-297v-1018h-64z" />
<glyph unicode="g" horiz-adv-x="1179" d="M143 -295h576q248 0 248 234v61h-478q-94 0 -131 6q-68 10 -118 51q-96 76 -97 250v465q0 143 58.5 216t197.5 91q31 4 52 4h229q35 0 70 -4q154 -18 220 -88.5t66 -222.5v-821q0 -182 -45 -232q-67 -73 -312 -73h-7h-529v63zM207 309q0 -143 69 -196q62 -50 209 -50h484 v695q0 139 -62.5 199.5t-201.5 60.5h-248q-131 0 -190.5 -55.5t-59.5 -184.5v-469z" />
<glyph unicode="h" horiz-adv-x="1179" d="M143 0v1434h64v-351h471q186 0 268 -65q90 -74 90 -254v-764h-65v760q0 135 -60.5 196.5t-195.5 61.5h-508v-1018h-64z" />
<glyph unicode="i" horiz-adv-x="354" d="M121 1249q0 20 17.5 39t37.5 19q23 0 40 -19.5t17 -42.5q0 -57 -57 -57q-55 0 -55 61zM147 0v1083h66v-1083h-66z" />
<glyph unicode="j" horiz-adv-x="352" d="M-166 -295h86q94 0 159.5 59.5t65.5 151.5v1167h64v-1144q0 -190 -141 -267q-55 -30 -140 -30h-6h-88v63zM117 1249q0 20 18.5 39t36.5 19q23 0 41 -18.5t18 -41.5q0 -59 -57 -59t-57 61z" />
<glyph unicode="k" horiz-adv-x="909" d="M143 0v1434h64v-1434h-64zM225 541q0 30 47 71l533 471h92l-604 -538l616 -545h-98l-569 506q-16 14 -17 35z" />
<glyph unicode="l" horiz-adv-x="350" d="M143 0v1434h64v-1434h-64z" />
<glyph unicode="m" horiz-adv-x="1540" d="M143 0v758q0 325 293 325h2h107q129 0 198 -84q12 -14 33 -53q12 27 35 53q70 84 197 84h106q283 0 283 -325v-758h-64v788q0 229 -223 230h-102q-115 0 -168 -86q-35 -57 -35 -176v-756h-66v756q0 104 -24 159q-31 74 -119 97q-25 6 -51 6h-103q-236 0 -235 -230v-788 h-64z" />
<glyph unicode="n" horiz-adv-x="1165" d="M143 0v811q0 272 314 272h256q309 0 309 -272v-811h-64v815q0 203 -245 203h-256q-250 0 -250 -203v-815h-64z" />
<glyph unicode="o" horiz-adv-x="1165" d="M141 266q0 19 2 37v461q0 94 17 143q23 66 84 115q76 61 217 61h260q301 0 301 -319v-461q0 -303 -301 -303h-260q-111 0 -160 23q-160 72 -160 243zM207 285q-1 -184 153 -215q29 -6 103 -7h254q86 0 127 19q113 51 112 197v505q0 233 -239 234h-254q-98 0 -137 -19 q-119 -55 -119 -215v-499z" />
<glyph unicode="p" horiz-adv-x="1179" d="M143 -358v1151q0 290 310 290h2h250q332 0 331 -288v-488q0 -119 -41 -182q-82 -125 -252 -125h-536v-358h-64zM207 63h536q225 0 226 240v490q0 225 -262 225h-244q-256 0 -256 -232v-723z" />
<glyph unicode="q" horiz-adv-x="1179" d="M141 268q0 21 2 39v488q0 288 328 288h2h252q311 0 311 -290v-1151h-67v358h-533q-174 0 -256 125q-39 59 -39 143zM207 303q0 -240 227 -240h535v723q0 231 -252 232h-246q-141 0 -205 -62q-59 -70 -59 -163v-490z" />
<glyph unicode="r" horiz-adv-x="501" d="M143 0l2 776q0 279 258 305q6 0 21 2h92v-65h-84q-18 0 -29 -2q-195 -18 -194 -240v-776h-66z" />
<glyph unicode="s" horiz-adv-x="987" d="M86 776v68q0 119 88 182q80 57 205 57h522v-65h-520q-113 0 -160 -35q-72 -53 -71 -137v-68q0 -111 69 -155q55 -37 174 -37h258q244 0 244 -260v-54q0 -98 -29 -151q-66 -121 -235 -121h-541v63h543q182 0 194 168q2 35 2 41l-4 54q-8 100 -43 141q-39 49 -137 49h-254 q-305 0 -305 260z" />
<glyph unicode="t" horiz-adv-x="442" d="M143 0v1434h64v-351h307v-65h-307v-1018h-64z" />
<glyph unicode="u" horiz-adv-x="1187" d="M143 291v792h64v-792q0 -227 270 -228h236q266 0 266 222v798h65v-792q0 -180 -139 -258q-59 -33 -192 -33h-236q-135 0 -194 33q-140 78 -140 258z" />
<glyph unicode="v" horiz-adv-x="1075" d="M0 1083h74l463 -995l464 995h74l-489 -1044q-23 -49 -47 -49q-20 0 -33 18q-4 8 -19 31z" />
<glyph unicode="w" horiz-adv-x="1443" d="M43 1083h68l284 -968l279 899q16 55 31 63q33 20 49 -16q8 -14 18 -47l275 -899l284 968h68l-314 -1067q-8 -27 -34 -26q-29 0 -45 45q-4 8 -11 28l-272 895l-274 -895q-23 -75 -61 -75h-1q-20 0 -35 26q-4 6 -16 52z" />
<glyph unicode="x" horiz-adv-x="993" d="M29 0l430 539l-424 544h86l379 -489l372 489h86l-417 -542l426 -541h-86l-381 487l-385 -487h-86z" />
<glyph unicode="y" horiz-adv-x="1173" d="M143 -289h598q121 0 185 74q41 47 41 133v82h-516q-143 0 -225.5 75t-82.5 218v790h64v-790q0 -229 244 -230h516v1020h63v-1159q0 -135 -78 -208.5t-213 -73.5h-596v69z" />
<glyph unicode="z" horiz-adv-x="1038" d="M53 41q0 22 37 65l799 912h-821v65h860q12 -2 24.5 -4t18.5 -12q8 -16 2 -33q-10 -31 -21 -41l-811 -927l826 -3v-63h-836q-78 0 -78 41z" />
<glyph unicode="{" horiz-adv-x="567" d="M115 717q55 4 88 44t33 97v682q0 109 141 109h76v-41h-21q-76 0 -97.5 -26t-21.5 -103v-619q0 -129 -120 -143q121 -14 120 -144v-618q0 -78 21 -100q23 -29 98 -29h21v-41h-76q-141 0 -141 109v681q0 57 -33 97.5t-88 44.5z" />
<glyph unicode="|" horiz-adv-x="358" d="M143 0v1434h72v-1434h-72z" />
<glyph unicode="}" horiz-adv-x="567" d="M115 -174h22q78 0 97.5 25.5t19.5 103.5v618q0 129 123 144q-23 2 -51 16q-72 37 -72 127v619q0 78 -19.5 103.5t-97.5 25.5h-22v41h78q139 0 139 -109v-682q0 -57 32.5 -97t88.5 -44q-55 -4 -88 -44t-33 -98v-681q0 -109 -139 -109h-78v41z" />
<glyph unicode="~" horiz-adv-x="772" d="M78 516q0 61 38 118.5t95 57.5q49 0 190.5 -49t173.5 -49q68 0 68 78h70q0 -66 -35 -111q-39 -51 -105 -51q-55 0 -189 48t-167 48q-25 0 -46 -31.5t-21 -58.5h-72z" />
<glyph unicode="&#xa1;" horiz-adv-x="397" d="M143 1376q0 57 58 58q55 -1 55 -60q0 -20 -16.5 -40.5t-36.5 -20.5q-18 0 -39 18.5t-21 44.5zM164 0h72v1237h-72v-1237z" />
<glyph unicode="&#xa2;" horiz-adv-x="929" d="M143 295v489q0 94 21 146q25 66 92.5 109.5t179.5 43.5h96v150h66v-150h252v-65h-252v-955h260v-63h-260v-117h-66v117h-67q-145 0 -217 55q-105 80 -105 240zM213 303q0 -240 256 -240h63v955h-88q-125 0 -178 -52.5t-53 -174.5v-488z" />
<glyph unicode="&#xa3;" horiz-adv-x="1228" d="M43 0v76q16 0 47 8q86 23 139.5 87.5t53.5 152.5v364h-238v72h240v373q0 139 71.5 220t206.5 81h115q143 0 223 -78t80 -219v-105h-72v103q0 104 -60.5 165.5t-164.5 61.5h-119q-12 0 -33 -4q-150 -31 -176 -176q-4 -25 -4 -43l4 -379h549v-72h-551v-360q0 -35 -4 -58 q-27 -152 -127 -198h631q23 0 55 6q172 33 201 192q0 8 2 23v123h72v-101q0 -139 -94.5 -227t-235.5 -88h-811z" />
<glyph unicode="&#xa4;" horiz-adv-x="1146" d="M82 291l113 110q-102 125 -103 293q0 172 103 297l-113 109l82 84l110 -111q131 102 297 103q170 0 295 -103l111 111l82 -84l-109 -109q100 -127 101 -297q0 -156 -101 -293l109 -110l-84 -80l-109 108q-131 -104 -291 -104q-158 0 -301 104l-108 -108zM180 698 q0 -164 114 -278.5t275 -114.5q164 0 280 112.5t116 276.5q0 166 -114 281t-278 115q-166 0 -279.5 -114t-113.5 -278z" />
<glyph unicode="&#xa5;" horiz-adv-x="1026" d="M-57 1434h129l415 -539q8 -10 17 -55v-15q8 25 8 37q8 25 12 33l432 539h127l-530 -652v-55h264v-84h-264v-211h264v-84h-264v-348h-100v348h-260v84h260v211h-260v84h260v57z" />
<glyph unicode="&#xa6;" horiz-adv-x="487" d="M211 -39v578h72v-578h-72zM211 969v540h72v-540h-72z" />
<glyph unicode="&#xa7;" horiz-adv-x="792" d="M25 606q0 33 2 53q10 92 71.5 159t153.5 93q-170 74 -170 222q0 84 46 159.5t120 113.5t155 38q94 0 201 -49q16 -8 45 -25v-90q-10 8 -53 33q-102 59 -195 59q-139 0 -206 -112q-35 -57 -35 -119q0 -123 170 -174l135 -41q133 -41 199 -103q78 -74 77 -200 q1 -129 -71 -209q-61 -68 -156 -95q170 -66 170 -231q0 -88 -43 -170q-47 -88 -122 -126t-159 -38q-98 0 -198 49q-12 6 -45 25v92q14 -10 53 -35q96 -57 195 -57q141 0 208 123q35 63 35 129q0 82 -51 125q-35 31 -121 59l-137 47q-133 45 -193 101q-82 74 -81 194z M104 629q0 -158 148 -221q2 0 2 -2l2 -3q123 -25 152 -24q109 0 181.5 59.5t72.5 163.5q-1 22 -5 47q-20 133 -176 189q0 4 -8 5t-27 3q-47 10 -90 10q-106 0 -176 -59q-76 -63 -76 -168z" />
<glyph unicode="&#xa8;" horiz-adv-x="0" d="M319 1284q-2 63 62 66q27 0 47.5 -18.5t20.5 -45.5q0 -25 -24 -46t-48 -17q-55 6 -58 61zM672 1284q-2 63 61 66q27 0 47.5 -18.5t20.5 -45.5q0 -25 -23.5 -46t-48.5 -17q-55 6 -57 61z" />
<glyph unicode="&#xa9;" horiz-adv-x="1564" d="M123 446v637q0 350 373 351h583q373 0 373 -351v-637q0 -344 -373 -344h-583q-373 0 -373 344zM195 453q0 -279 299 -279h589q297 0 297 279v624q0 285 -297 285h-589q-299 0 -299 -285v-624zM524 565v400q0 78 51.5 124t129.5 46h317v-68h-315q-115 0 -115 -100v-400 q0 -78 55 -104q20 -10 72 -10h301v-66h-301q-195 0 -195 178z" />
<glyph unicode="&#xaa;" horiz-adv-x="757" d="M49 1024q0 178 230 201l170 16q31 6 47 29q10 20 10 43q0 88 -152 88q-72 0 -104 -21q-43 -25 -55 -88h-113q12 123 88 172q66 45 195 45q102 0 174 -32q94 -45 94 -136v-378q0 -37 33 -37l43 4v-90q-49 -12 -72 -13q-119 0 -119 105q-102 -104 -248 -105 q-98 0 -159.5 51.5t-61.5 145.5zM70 621v100h608v-100h-608zM180 1034q0 -98 119 -98q74 0 135 35q72 40 72 108v84q-55 -23 -219 -45q-106 -14 -107 -84z" />
<glyph unicode="&#xab;" d="M219 479v178l283 236l-2 -139l-226 -187l228 -186l-2 -139zM637 479v178l285 234l-2 -137l-228 -187l228 -186v-139z" />
<glyph unicode="&#xac;" horiz-adv-x="1196" d="M100 682v117h996v-578h-113v461h-883z" />
<glyph unicode="&#xad;" horiz-adv-x="655" d="M72 545v71h512v-71h-512z" />
<glyph unicode="&#xae;" horiz-adv-x="1558" d="M123 446v637q0 350 373 351h583q373 0 373 -351v-637q0 -344 -373 -344h-583q-373 0 -373 344zM195 453q0 -279 299 -279h589q297 0 297 279v624q0 285 -297 285h-589q-299 0 -299 -285v-624zM520 385v748h352q190 0 191 -179v-96q0 -78 -48 -123t-126 -45h-207l408 -305 h-113l-391 293v-293h-66zM586 752q10 4 24 4h277q111 0 110 98v104q0 106 -125 107h-286v-313z" />
<glyph unicode="&#xaf;" horiz-adv-x="555" d="M-2 1243v84h557v-84h-557z" />
<glyph unicode="&#xb0;" horiz-adv-x="819" d="M109 1139q0 129 86 215t215 86t215 -85t86 -214q0 -127 -87 -214t-214 -87t-214 86t-87 213zM209 1141q0 -80 57.5 -145.5t136.5 -65.5q86 0 145.5 61.5t59.5 147.5q0 84 -58 147.5t-142 63.5h-13q-76 0 -131 -65.5t-55 -143.5z" />
<glyph unicode="&#xb1;" horiz-adv-x="1196" d="M121 0v76h954v-76h-954zM121 604v76h442v356h72v-356h440v-76h-440v-356h-72v356h-442z" />
<glyph unicode="&#xb4;" horiz-adv-x="0" d="M424 1212l117 142h147l-182 -142h-82z" />
<glyph unicode="&#xb5;" horiz-adv-x="1028" d="M139 -393l4 1454h95v-727q0 -29 6 -66q14 -88 82.5 -143t158.5 -55q158 0 281 159q12 16 25 33v799h94v-1061h-94v162q-74 -127 -218 -164q-55 -14 -108 -14q-141 0 -232 96v-473h-94z" />
<glyph unicode="&#xb6;" horiz-adv-x="1099" d="M96 1133q0 154 101.5 245.5t283.5 91.5h475v-1822h-71v1777h-320v-1777h-71v1132q-127 0 -193 25q-49 18 -104 72q-100 96 -101 256z" />
<glyph unicode="&#xb7;" horiz-adv-x="409" d="M131 739q-4 82 82 86q37 2 62.5 -23.5t25.5 -60.5q0 -37 -25.5 -61.5t-62.5 -22.5q-78 4 -82 82z" />
<glyph unicode="&#xb8;" horiz-adv-x="354" d="M14 -412l35 60q41 -33 98 -33q135 0 136 135q0 109 -138 127q-33 4 -69 0l80 143h69l-49 -88q78 -10 128 -58t50 -126q0 -90 -61.5 -143.5t-153.5 -53.5q-59 0 -125 37z" />
<glyph unicode="&#xba;" horiz-adv-x="747" d="M49 1169q0 160 82 250t242 90q162 0 244.5 -91t82.5 -253q0 -156 -85 -247t-240 -91q-160 0 -243 91.5t-83 250.5zM70 621v100h610v-100h-610zM188 1174q0 -238 183 -238q190 0 190 233q0 231 -186 232q-186 0 -187 -227z" />
<glyph unicode="&#xbb;" d="M217 242v139l227 186l-227 187v139l283 -236v-180zM637 242v139l227 186l-227 187v139l283 -236v-180z" />
<glyph unicode="&#xbf;" horiz-adv-x="983" d="M0 340q0 -121 39 -186q90 -154 287 -154h600v72h-600q-123 0 -188.5 72.5t-65.5 195.5v190q0 25 4 37q35 178 254 178h127q197 0 196 179v309h-71v-305q0 -37 -20.5 -74t-55.5 -37h-178q-37 0 -62 -4q-119 -18 -190 -90q-76 -78 -76 -193v-190zM557 1376q0 57 59 58 q23 0 41.5 -18.5t14.5 -41.5q0 -20 -15 -41q-23 -18 -41 -18q-25 0 -42 19.5t-17 41.5z" />
<glyph unicode="&#xc0;" horiz-adv-x="1249" d="M0 0l561 1399q10 25 21 33q16 20 43 20q43 0 59 -53l563 -1399h-88l-164 422h-745l-162 -422h-88zM283 496h682l-342 882zM432 1827l182 -141h82l-116 141h-148z" />
<glyph unicode="&#xc1;" horiz-adv-x="1245" d="M0 0l561 1399q10 25 21 33q16 20 43 20q43 0 59 -53l563 -1399h-88l-164 422h-745l-162 -422h-88zM283 496h682l-342 882zM584 1681l116 142h148l-182 -142h-82z" />
<glyph unicode="&#xc2;" horiz-adv-x="1245" d="M0 0l561 1399q10 25 21 33q16 20 43 20q43 0 59 -53l563 -1399h-88l-164 422h-745l-162 -422h-88zM283 496h682l-342 882zM385 1679l180 142h86l172 -142h-110l-82 66h-49l-82 -66h-115z" />
<glyph unicode="&#xc3;" horiz-adv-x="1243" d="M0 0l561 1399q10 25 21 33q16 20 43 20q43 0 59 -53l563 -1399h-88l-164 422h-745l-162 -422h-88zM283 496h682l-342 882zM440 1679q0 160 105 160q41 0 124 -41t101 -41q29 0 37 17q2 10 2 45h70q0 -145 -111 -146q-47 0 -122 40t-95 40q-39 0 -39 -74h-72z" />
<glyph unicode="&#xc4;" horiz-adv-x="1249" d="M0 0l561 1399q10 25 21 33q16 20 43 20q43 0 59 -53l563 -1399h-88l-164 422h-745l-162 -422h-88zM283 496h682l-342 882zM385 1741q-2 66 61 65q27 2 47.5 -17t20.5 -46q0 -25 -23.5 -45.5t-48.5 -18.5q-55 8 -57 62zM737 1741q-2 66 62 65q27 2 47 -17t20 -46 q0 -25 -23.5 -45.5t-47.5 -18.5q-55 8 -58 62z" />
<glyph unicode="&#xc5;" horiz-adv-x="1245" d="M0 0l561 1399q10 25 21 33q16 20 43 20q43 0 59 -53l563 -1399h-88l-164 422h-745l-162 -422h-88zM283 496h682l-342 882zM508 1796q-2 53 37 96t92 43q55 0 94 -39t39 -94q0 -57 -40 -93t-99 -36q-47 0 -84 39t-39 84zM565 1800q2 -72 70 -71q39 0 61.5 20t22.5 53 q0 31 -25 49q-27 31 -55 27q-31 0 -52.5 -22.5t-21.5 -55.5z" />
<glyph unicode="&#xc6;" horiz-adv-x="1863" d="M-43 0l1090 1434h718v-95h-616v-569h604v-90h-606v-584h643v-96h-743v489h-605l-376 -489h-109zM508 571h539l-3 699q-2 -4 -4 -6z" />
<glyph unicode="&#xc7;" horiz-adv-x="1173" d="M143 328v796q0 150 90.5 230t239.5 80h602v-72h-600q-117 0 -188.5 -58.5t-71.5 -175.5v-796q0 -172 129 -236q49 -25 156 -24h571v-72h-362l-109 -137q96 27 121 26q150 0 149 -135q0 -86 -71 -133q-63 -41 -154 -41q-90 0 -170 37l21 47q63 -27 125 -26q133 0 133 106 q0 47 -35 75.5t-84 28.5h-27q-12 -2 -47 -14l-16 19l110 147h-155q-100 0 -138 8q-61 14 -120 68q-99 90 -99 252z" />
<glyph unicode="&#xc8;" horiz-adv-x="1206" d="M143 315v793q0 274 273 319q37 6 63 7h592v-72h-598q-25 0 -49 -4q-211 -35 -211 -250v-363h856l-2 -71h-852v-350q0 -117 70.5 -184.5t187.5 -67.5h594v-72h-602q-29 0 -64 6q-258 45 -258 309zM498 1827l182 -141h82l-117 141h-147z" />
<glyph unicode="&#xc9;" horiz-adv-x="1181" d="M143 315v793q0 274 273 319q37 6 63 7h592v-72h-598q-25 0 -49 -4q-211 -35 -211 -250v-363h856l-2 -71h-852v-350q0 -117 70.5 -184.5t187.5 -67.5h594v-72h-602q-29 0 -64 6q-258 45 -258 309zM600 1681l117 142h147l-182 -142h-82z" />
<glyph unicode="&#xca;" horiz-adv-x="1208" d="M143 315v793q0 274 273 319q37 6 63 7h592v-72h-598q-25 0 -49 -4q-211 -35 -211 -250v-363h856l-2 -71h-852v-350q0 -117 70.5 -184.5t187.5 -67.5h594v-72h-602q-29 0 -64 6q-258 45 -258 309zM401 1679l181 142h86l172 -142h-111l-82 66h-49l-82 -66h-115z" />
<glyph unicode="&#xcb;" horiz-adv-x="1212" d="M143 315v793q0 274 273 319q37 6 63 7h592v-72h-598q-25 0 -49 -4q-211 -35 -211 -250v-363h856l-2 -71h-852v-350q0 -117 70.5 -184.5t187.5 -67.5h594v-72h-602q-29 0 -64 6q-258 45 -258 309zM444 1741q-2 66 62 65q27 2 47 -17t20 -46q0 -25 -23.5 -45.5t-47.5 -18.5 q-55 8 -58 62zM797 1741q-2 66 61 65q27 2 47.5 -17t20.5 -46q0 -25 -23.5 -45.5t-48.5 -18.5q-55 8 -57 62z" />
<glyph unicode="&#xcc;" horiz-adv-x="423" d="M6 1825h148l116 -142h-82zM184 0v1434h72v-1434h-72z" />
<glyph unicode="&#xcd;" horiz-adv-x="382" d="M111 1681l116 142h148l-182 -142h-82zM143 0v1434h72v-1434h-72z" />
<glyph unicode="&#xce;" horiz-adv-x="395" d="M-33 1686l180 141h86l173 -141h-111l-82 65h-49l-82 -65h-115zM143 0v1434h72v-1434h-72z" />
<glyph unicode="&#xcf;" horiz-adv-x="448" d="M-14 1735q-2 66 61 65q27 2 47.5 -17t20.5 -46q0 -25 -23.5 -45.5t-48.5 -18.5q-55 8 -57 62zM184 0v1434h72v-1434h-72zM338 1735q-2 66 61 65q27 2 47.5 -17t20.5 -46q0 -25 -23.5 -45.5t-48.5 -18.5q-55 8 -57 62z" />
<glyph unicode="&#xd0;" horiz-adv-x="1478" d="M61 725v63h166v682h551q135 0 271 -79q53 -33 108 -99q162 -197 162 -532q0 -344 -151 -552t-382 -208h-559v725h-166zM305 55h395q143 0 193.5 13.5t128.5 78.5q213 180 213 609q0 303 -131 482t-367 179h-432v-629h391v-63h-391v-670z" />
<glyph unicode="&#xd1;" horiz-adv-x="1300" d="M143 0v1403q6 45 45 45q23 0 58 -43q4 -6 12 -21l842 -1267v1317h71v-1346q0 -53 -2 -63q-8 -41 -36 -41q-8 0 -19.5 5t-21.5 17l-21 27l-10 12l-846 1276v-1321h-72zM494 1686q0 160 104 159q41 0 124 -41t101 -41q29 0 35 19q4 8 4 43h70q0 -145 -111 -146 q-47 0 -122.5 40t-94.5 40q-39 0 -39 -73h-71z" />
<glyph unicode="&#xd2;" horiz-adv-x="1271" d="M143 344v739q0 350 373 351h256q373 0 373 -351v-739q0 -344 -373 -344h-256q-373 0 -373 344zM215 350q0 -278 299 -278h262q297 0 297 278v727q0 285 -297 285h-262q-299 0 -299 -285v-727zM498 1827l182 -141h82l-117 141h-147z" />
<glyph unicode="&#xd3;" horiz-adv-x="1267" d="M143 344v739q0 350 373 351h256q373 0 373 -351v-739q0 -344 -373 -344h-256q-373 0 -373 344zM215 350q0 -278 299 -278h262q297 0 297 278v727q0 285 -297 285h-262q-299 0 -299 -285v-727zM559 1677l117 142h147l-182 -142h-82z" />
<glyph unicode="&#xd4;" horiz-adv-x="1269" d="M143 344v739q0 350 373 351h256q373 0 373 -351v-739q0 -344 -373 -344h-256q-373 0 -373 344zM215 350q0 -278 299 -278h262q297 0 297 278v727q0 285 -297 285h-262q-299 0 -299 -285v-727zM420 1681l180 142h86l172 -142h-110l-82 66h-50l-81 -66h-115z" />
<glyph unicode="&#xd5;" horiz-adv-x="1288" d="M143 344v739q0 350 373 351h256q373 0 373 -351v-739q0 -344 -373 -344h-256q-373 0 -373 344zM215 350q0 -278 299 -278h262q297 0 297 278v727q0 285 -297 285h-262q-299 0 -299 -285v-727zM420 1688q0 160 104 159q41 0 124 -41t102 -41q29 0 36 19q2 8 2 43h70 q0 -145 -110 -146q-47 0 -123 40t-95 40q-39 0 -38 -73h-72z" />
<glyph unicode="&#xd6;" horiz-adv-x="1288" d="M143 344v739q0 350 373 351h256q373 0 373 -351v-739q0 -344 -373 -344h-256q-373 0 -373 344zM215 350q0 -278 299 -278h262q297 0 297 278v727q0 285 -297 285h-262q-299 0 -299 -285v-727zM446 1745q-2 63 62 65q27 0 47 -18t20 -45t-23.5 -47.5t-47.5 -16.5 q-55 6 -58 62zM799 1745q-2 63 61 65q27 0 47.5 -18t20.5 -45t-23.5 -47.5t-48.5 -16.5q-55 6 -57 62z" />
<glyph unicode="&#xd7;" horiz-adv-x="1196" d="M164 51l414 467l-414 467l22 25l412 -465l414 463l18 -21l-409 -469l409 -467l-18 -22l-414 467l-414 -469z" />
<glyph unicode="&#xd8;" horiz-adv-x="1288" d="M70 0l118 152q-45 74 -45 192v739q0 350 373 351h256q219 0 311 -131l103 131h84l-152 -195q27 -68 27 -156v-739q0 -344 -373 -344h-256q-190 0 -287 96l-75 -96h-84zM215 350q0 -278 299 -278h262q297 0 297 278v727q0 285 -297 285h-262q-299 0 -299 -285v-727z" />
<glyph unicode="&#xd9;" horiz-adv-x="1298" d="M143 367v1067h72v-1047q0 -170 77 -242.5t249 -72.5h227q174 0 251 70.5t77 242.5v1049h71v-1067q0 -193 -112 -291q-61 -53 -135 -68q-43 -8 -150 -8h-231q-109 0 -150 8q-70 14 -132 65.5t-89 119.5q-25 61 -25 174zM498 1827l182 -141h82l-117 141h-147z" />
<glyph unicode="&#xda;" horiz-adv-x="1294" d="M143 367v1067h72v-1047q0 -170 77 -242.5t249 -72.5h227q174 0 251 70.5t77 242.5v1049h71v-1067q0 -193 -112 -291q-61 -53 -135 -68q-43 -8 -150 -8h-231q-109 0 -150 8q-70 14 -132 65.5t-89 119.5q-25 61 -25 174zM641 1681l117 142h147l-182 -142h-82z" />
<glyph unicode="&#xdb;" horiz-adv-x="1300" d="M143 367v1067h72v-1047q0 -170 77 -242.5t249 -72.5h227q174 0 251 70.5t77 242.5v1049h71v-1067q0 -193 -112 -291q-61 -53 -135 -68q-43 -8 -150 -8h-231q-109 0 -150 8q-70 14 -132 65.5t-89 119.5q-25 61 -25 174zM449 1679l180 142h86l172 -142h-111l-82 66h-49 l-82 -66h-114z" />
<glyph unicode="&#xdc;" horiz-adv-x="1292" d="M143 367v1067h72v-1047q0 -170 77 -242.5t249 -72.5h227q174 0 251 70.5t77 242.5v1049h71v-1067q0 -193 -112 -291q-61 -53 -135 -68q-43 -8 -150 -8h-231q-109 0 -150 8q-70 14 -132 65.5t-89 119.5q-25 61 -25 174zM440 1741q-2 66 62 65q27 2 47 -17t20 -46 q0 -25 -23.5 -45.5t-47.5 -18.5q-55 8 -58 62zM793 1741q-2 66 61 65q27 2 47.5 -17t20.5 -46q0 -25 -24 -45.5t-48 -18.5q-55 8 -57 62z" />
<glyph unicode="&#xdd;" horiz-adv-x="1024" d="M-14 1434h84l432 -736l432 736h84l-481 -816v-618h-72v618zM481 1686l117 141h147l-182 -141h-82z" />
<glyph unicode="&#xde;" horiz-adv-x="1366" d="M236 0v1470h79v-266h539q160 0 260 -107.5t100 -279.5q0 -152 -84 -272q-94 -135 -239 -135h-576v-410h-79zM315 467h500q145 0 230 95t85 257q0 158 -88.5 244t-244.5 86h-482v-682z" />
<glyph unicode="&#xdf;" horiz-adv-x="1134" d="M164 0v1104q0 430 358 430q156 0 256 -129q82 -106 82 -213q0 -240 -233 -324v-10q188 -14 307 -125q127 -119 127 -303q0 -178 -121 -315.5t-297 -137.5q-125 0 -205 35v94q80 -41 180 -40q143 0 244 104t101 248q0 197 -152 293q-127 80 -336 84v114q115 12 199 84 q92 80 92 191q0 104 -69.5 187t-172.5 83q-270 0 -270 -344v-1110h-90z" />
<glyph unicode="&#xe0;" d="M143 276v162q0 131 76 208t207 77h545v70q0 225 -232 225h-594v65h562q328 0 327 -303v-487q0 -137 -70.5 -215t-205.5 -78h-326q-145 0 -225 96q-64 71 -64 180zM207 281q0 -180 186 -213q23 -4 35 -5h332q209 0 209 213v383h-547q-8 0 -35 -4q-180 -29 -180 -215v-159z M426 1378l182 -141h82l-117 141h-147z" />
<glyph unicode="&#xe1;" d="M143 276v162q0 131 76 208t207 77h545v70q0 225 -232 225h-594v65h562q328 0 327 -303v-487q0 -137 -70.5 -215t-205.5 -78h-326q-145 0 -225 96q-64 71 -64 180zM207 281q0 -180 186 -213q23 -4 35 -5h332q209 0 209 213v383h-547q-8 0 -35 -4q-180 -29 -180 -215v-159z M549 1237l117 141h147l-182 -141h-82z" />
<glyph unicode="&#xe2;" d="M143 276v162q0 131 76 208t207 77h545v70q0 225 -232 225h-594v65h562q328 0 327 -303v-487q0 -137 -70.5 -215t-205.5 -78h-326q-145 0 -225 96q-64 71 -64 180zM207 281q0 -180 186 -213q23 -4 35 -5h332q209 0 209 213v383h-547q-8 0 -35 -4q-180 -29 -180 -215v-159z M379 1241l180 141h86l172 -141h-110l-82 66h-50l-81 -66h-115z" />
<glyph unicode="&#xe3;" d="M143 276v162q0 131 76 208t207 77h545v70q0 225 -232 225h-594v65h562q328 0 327 -303v-487q0 -137 -70.5 -215t-205.5 -78h-326q-145 0 -225 96q-64 71 -64 180zM207 281q0 -180 186 -213q23 -4 35 -5h332q209 0 209 213v383h-547q-8 0 -35 -4q-180 -29 -180 -215v-159z M397 1247q0 160 105 160q41 0 124 -41t101 -41q29 0 37 16q2 8 2 45h70q0 -145 -111 -145q-45 0 -121 40t-96 40q-39 0 -39 -74h-72z" />
<glyph unicode="&#xe4;" d="M143 276v162q0 131 76 208t207 77h545v70q0 225 -232 225h-594v65h562q328 0 327 -303v-487q0 -137 -70.5 -215t-205.5 -78h-326q-145 0 -225 96q-64 71 -64 180zM207 281q0 -180 186 -213q23 -4 35 -5h332q209 0 209 213v383h-547q-8 0 -35 -4q-180 -29 -180 -215v-159z M365 1305q-2 63 61 65q27 0 47.5 -18t20.5 -45t-22.5 -47.5t-49.5 -16.5q-55 6 -57 62zM717 1305q-2 63 61 65q27 0 47.5 -18t20.5 -45t-22.5 -47.5t-49.5 -16.5q-55 6 -57 62z" />
<glyph unicode="&#xe5;" d="M143 276v162q0 131 76 208t207 77h545v70q0 225 -232 225h-594v65h562q328 0 327 -303v-487q0 -137 -70.5 -215t-205.5 -78h-326q-145 0 -225 96q-64 71 -64 180zM207 281q0 -180 186 -213q23 -4 35 -5h332q209 0 209 213v383h-547q-8 0 -35 -4q-180 -29 -180 -215v-159z M545 1366q-2 53 37 96t92 43q55 0 94 -39t39 -94q0 -59 -40 -94t-99 -35q-47 0 -84 38t-39 85zM602 1370q2 -72 70 -72q39 0 61.5 20.5t22.5 53.5q0 31 -25 49q-27 31 -55 27q-31 0 -52.5 -23.5t-21.5 -54.5z" />
<glyph unicode="&#xe6;" horiz-adv-x="1820" d="M115 262q0 168 114 252q72 51 226 74q119 14 237 26q137 16 137 172q0 242 -282 242q-133 0 -203 -61q-61 -53 -84 -160h-90q10 135 94 207q98 88 293 88q229 0 356 -184q109 117 181.5 150.5t173.5 33.5q201 0 311.5 -155t114.5 -431h-781q0 -141 13.5 -196.5 t48.5 -114.5q90 -156 278 -156q113 0 200 60.5t118 166.5h98q-8 -35 -16 -55q-16 -39 -60 -94q-119 -158 -338 -158q-139 0 -231 62q-98 66 -174 217q-180 -281 -432 -281q-139 0 -221 80t-82 215zM221 285q0 -240 234 -240q109 0 200 49q72 41 129 144q20 35 41 139l-4 237 q-41 -23 -84 -45q-31 -16 -84 -24l-188 -31q-244 -39 -244 -229zM913 586h674q0 221 -87.5 324.5t-237.5 103.5q-145 0 -247 -109.5t-102 -318.5z" />
<glyph unicode="&#xe7;" horiz-adv-x="958" d="M143 297v489q0 297 289 297h420v-65h-410q-236 0 -235 -221v-492q0 -139 96 -207q49 -35 164 -35h391v-63h-330l-110 -152q94 23 119 23q63 0 104 -38t41 -99q0 -86 -70 -133q-59 -41 -151 -41t-172 37l20 47q66 -27 125 -27q53 0 92 27.5t39 79.5q0 43 -32.5 73.5 t-75.5 30.5q-27 0 -82 -12l-15 18l119 166h-14q-117 0 -174 29q-148 73 -148 268z" />
<glyph unicode="&#xe8;" horiz-adv-x="1110" d="M141 281q0 22 2 28v461q0 154 66.5 227.5t218.5 85.5q27 2 45 2l264 -2q168 -2 233.5 -78.5t65.5 -248.5v-29l-829 -362l4 -48q12 -143 59 -194q55 -59 193 -60h573v-63h-559q-145 0 -235 68q-100 76 -101 213zM207 436l760 332q4 33 4 43q-6 207 -262 207h-220 q-139 0 -204 -45q-78 -53 -78 -185v-352zM449 1384l182 -141h82l-117 141h-147z" />
<glyph unicode="&#xe9;" horiz-adv-x="1097" d="M141 281q0 22 2 28v461q0 154 66.5 227.5t218.5 85.5q27 2 45 2l264 -2q168 -2 233.5 -78.5t65.5 -248.5v-29l-829 -362l4 -48q12 -143 59 -194q55 -59 193 -60h573v-63h-559q-145 0 -235 68q-100 76 -101 213zM207 436l760 332q4 33 4 43q-6 207 -262 207h-220 q-139 0 -204 -45q-78 -53 -78 -185v-352zM510 1243l117 141h147l-182 -141h-82z" />
<glyph unicode="&#xea;" horiz-adv-x="1110" d="M141 281q0 22 2 28v461q0 154 66.5 227.5t218.5 85.5q27 2 45 2l264 -2q168 -2 233.5 -78.5t65.5 -248.5v-29l-829 -362l4 -48q12 -143 59 -194q55 -59 193 -60h573v-63h-559q-145 0 -235 68q-100 76 -101 213zM207 436l760 332q4 33 4 43q-6 207 -262 207h-220 q-139 0 -204 -45q-78 -53 -78 -185v-352zM360 1241l181 141h86l172 -141h-111l-82 66h-49l-82 -66h-115z" />
<glyph unicode="&#xeb;" horiz-adv-x="1103" d="M141 281q0 22 2 28v461q0 154 66.5 227.5t218.5 85.5q27 2 45 2l264 -2q168 -2 233.5 -78.5t65.5 -248.5v-29l-829 -362l4 -48q12 -143 59 -194q55 -59 193 -60h573v-63h-559q-145 0 -235 68q-100 76 -101 213zM207 436l760 332q4 33 4 43q-6 207 -262 207h-220 q-139 0 -204 -45q-78 -53 -78 -185v-352zM391 1305q-2 63 62 65q27 0 47 -18t20 -45t-23.5 -47.5t-47.5 -16.5q-55 6 -58 62zM743 1305q-2 63 62 65q27 0 47 -18t20 -45t-23.5 -47.5t-47.5 -16.5q-55 6 -58 62z" />
<glyph unicode="&#xec;" horiz-adv-x="368" d="M-6 1384l182 -141h82l-117 141h-147zM147 0v1083h66v-1083h-66z" />
<glyph unicode="&#xed;" horiz-adv-x="368" d="M117 1243l116 141h148l-182 -141h-82zM147 0v1083h66v-1083h-66z" />
<glyph unicode="&#xee;" horiz-adv-x="376" d="M-37 1245l180 141h86l172 -141h-110l-82 66h-49l-82 -66h-115zM147 0v1083h66v-1083h-66z" />
<glyph unicode="&#xef;" horiz-adv-x="442" d="M-20 1307q-2 63 61 65q27 0 47.5 -18t20.5 -45t-24 -47.5t-48 -16.5q-55 6 -57 62zM188 0v1083h66v-1083h-66zM332 1307q-2 63 61 65q27 0 47.5 -18t20.5 -45t-23.5 -47.5t-48.5 -16.5q-55 6 -57 62z" />
<glyph unicode="&#xf0;" d="M133 500q0 238 119 389q115 145 295 145q143 0 198 -22q106 -45 201 -207q-88 242 -121 305q-25 37 -51 74q-61 88 -168 182l4 2q-129 100 -166 125l19 10q82 -41 176 -119l4 2q170 -180 215 -250.5t90 -193.5q59 -164 60 -356q0 -401 -207 -549q-92 -68 -226 -68 q-195 0 -318.5 146.5t-123.5 384.5zM199 504q0 -217 96 -352q102 -143 276 -144q166 0 271 144q98 137 98 350q0 207 -100 346q-104 147 -271 147q-168 0 -272 -143q-98 -135 -98 -348z" />
<glyph unicode="&#xf1;" horiz-adv-x="1142" d="M143 0v811q0 272 314 272h256q309 0 309 -272v-811h-64v815q0 203 -245 203h-256q-250 0 -250 -203v-815h-64zM352 1247q0 160 105 160q41 0 124 -41t101 -41q27 0 35 16q4 8 4 45h70q0 -145 -111 -145q-47 0 -123 40t-94 40q-39 0 -39 -74h-72z" />
<glyph unicode="&#xf2;" d="M141 266q0 19 2 37v461q0 94 17 143q23 66 84 115q78 61 217 61h260q301 0 301 -319v-461q0 -303 -301 -303h-260q-111 0 -160 23q-160 72 -160 243zM207 285q-1 -184 153 -215q29 -6 103 -7h254q86 0 127 19q113 51 112 197v505q0 233 -239 234h-254q-98 0 -137 -19 q-119 -55 -119 -215v-499zM426 1384l182 -141h82l-117 141h-147z" />
<glyph unicode="&#xf3;" d="M141 266q0 19 2 37v461q0 94 17 143q23 66 84 115q78 61 217 61h260q301 0 301 -319v-461q0 -303 -301 -303h-260q-111 0 -160 23q-160 72 -160 243zM207 285q-1 -184 153 -215q29 -6 103 -7h254q86 0 127 19q113 51 112 197v505q0 233 -239 234h-254q-98 0 -137 -19 q-119 -55 -119 -215v-499zM514 1249l117 142h147l-182 -142h-82z" />
<glyph unicode="&#xf4;" d="M141 266q0 19 2 37v461q0 94 17 143q23 66 84 115q78 61 217 61h260q301 0 301 -319v-461q0 -303 -301 -303h-260q-111 0 -160 23q-160 72 -160 243zM207 285q-1 -184 153 -215q29 -6 103 -7h254q86 0 127 19q113 51 112 197v505q0 233 -239 234h-254q-98 0 -137 -19 q-119 -55 -119 -215v-499zM383 1241l180 141h86l172 -141h-110l-82 66h-49l-82 -66h-115z" />
<glyph unicode="&#xf5;" d="M141 266q0 19 2 37v461q0 94 17 143q23 66 84 115q78 61 217 61h260q301 0 301 -319v-461q0 -303 -301 -303h-260q-111 0 -160 23q-160 72 -160 243zM207 285q-1 -184 153 -215q29 -6 103 -7h254q86 0 127 19q113 51 112 197v505q0 233 -239 234h-254q-98 0 -137 -19 q-119 -55 -119 -215v-499zM373 1247q0 160 104 160q41 0 124 -41t101 -41q29 0 37 16q2 8 2 45h70q0 -145 -111 -145q-45 0 -120.5 40t-96.5 40q-39 0 -39 -74h-71z" />
<glyph unicode="&#xf6;" d="M141 266q0 19 2 37v461q0 94 17 143q23 66 84 115q78 61 217 61h260q301 0 301 -319v-461q0 -303 -301 -303h-260q-111 0 -160 23q-160 72 -160 243zM207 285q-1 -184 153 -215q29 -6 103 -7h254q86 0 127 19q113 51 112 197v505q0 233 -239 234h-254q-98 0 -137 -19 q-119 -55 -119 -215v-499zM365 1305q-2 63 61 65q27 0 47.5 -18t20.5 -45t-22.5 -47.5t-49.5 -16.5q-55 6 -57 62zM717 1305q-2 63 61 65q27 0 47.5 -18t20.5 -45t-22.5 -47.5t-49.5 -16.5q-55 6 -57 62z" />
<glyph unicode="&#xf7;" horiz-adv-x="1325" d="M145 680v68h1037v-68h-1037zM596 373v129h129v-129h-129zM596 926v129h129v-129h-129z" />
<glyph unicode="&#xf8;" horiz-adv-x="1165" d="M72 0l104 127q-35 59 -35 139q0 18 2 37v461q0 94 17 143q23 66 84 115q78 61 217 61h260q125 0 199 -55l55 70h84l-94 -117q57 -78 57 -217v-461q0 -303 -301 -303h-260q-160 0 -242 76l-63 -76h-84zM207 285q0 -58 16 -101l654 795q-55 39 -160 39h-254q-98 0 -137 -19 q-119 -55 -119 -215v-499zM260 125q39 -43 100 -55q29 -6 103 -7h254q86 0 127 19q113 51 112 197v505q1 91 -34 146z" />
<glyph unicode="&#xf9;" d="M143 291v792h64v-792q0 -227 270 -228h236q266 0 266 222v798h65v-792q0 -180 -139 -258q-59 -33 -192 -33h-236q-135 0 -194 33q-140 78 -140 258zM426 1384l182 -141h82l-117 141h-147z" />
<glyph unicode="&#xfa;" d="M143 291v792h64v-792q0 -227 270 -228h236q266 0 266 222v798h65v-792q0 -180 -139 -258q-59 -33 -192 -33h-236q-135 0 -194 33q-140 78 -140 258zM553 1243l117 141h147l-182 -141h-82z" />
<glyph unicode="&#xfb;" d="M143 291v792h64v-792q0 -227 270 -228h236q266 0 266 222v798h65v-792q0 -180 -139 -258q-59 -33 -192 -33h-236q-135 0 -194 33q-140 78 -140 258zM383 1241l180 141h86l172 -141h-110l-82 66h-49l-82 -66h-115z" />
<glyph unicode="&#xfc;" d="M143 291v792h64v-792q0 -227 270 -228h236q266 0 266 222v798h65v-792q0 -180 -139 -258q-59 -33 -192 -33h-236q-135 0 -194 33q-140 78 -140 258zM373 1307q-2 63 61 65q27 0 47.5 -18t20.5 -45t-22.5 -47.5t-49.5 -16.5q-55 6 -57 62zM725 1307q-2 63 61 65 q27 0 47.5 -18t20.5 -45t-22.5 -47.5t-49.5 -16.5q-55 6 -57 62z" />
<glyph unicode="&#xfd;" horiz-adv-x="1153" d="M143 -289h598q121 0 185 74q41 47 41 133v82h-516q-143 0 -225.5 75t-82.5 218v790h64v-790q0 -229 244 -230h516v1020h63v-1159q0 -135 -78 -208.5t-213 -73.5h-596v69zM483 1235l117 141h148l-183 -141h-82z" />
<glyph unicode="&#xfe;" d="M178 -422v1892h60v-675l67 135l55 67q70 84 256 84q164 0 273.5 -138t109.5 -363q0 -279 -110.5 -431.5t-294.5 -152.5q-90 0 -123 16q-25 8 -49 17q-45 18 -84 63q-53 63 -100 178v-692h-60zM231 502q0 -213 97 -344q88 -123 256 -123t264 145q88 135 88 367 q0 485 -356 485q-348 0 -349 -530z" />
<glyph unicode="&#xff;" horiz-adv-x="1136" d="M143 -289h598q121 0 185 74q41 47 41 133v82h-516q-143 0 -225.5 75t-82.5 218v790h64v-790q0 -229 244 -230h516v1020h63v-1159q0 -135 -78 -208.5t-213 -73.5h-596v69zM342 1305q-2 63 61 65q27 0 47.5 -18t20.5 -45q0 -25 -23.5 -45.5t-48.5 -18.5q-55 8 -57 62z M694 1305q-2 63 62 65q27 0 47 -18t20 -45q0 -25 -23.5 -45.5t-47.5 -18.5q-55 8 -58 62z" />
<glyph unicode="&#x152;" horiz-adv-x="2048" d="M113 719q0 367 159 581q158 209 422 209q125 0 203 -41q63 -33 82 -49q55 -47 133 -170v219h821v-102h-716v-559h684v-102h-684v-601h720v-102h-829v217q-80 -119 -137 -168q-18 -14 -84 -49q-78 -41 -207 -41q-256 0 -411.5 204t-155.5 554zM238 731q0 -326 116 -500 q121 -180 348 -180q166 0 281 105.5t115 269.5v637q0 154 -118 254t-273 100q-223 0 -349 -188q-121 -180 -120 -498z" />
<glyph unicode="&#x153;" horiz-adv-x="1933" d="M113 537q0 254 127 409.5t329 155.5q127 0 221.5 -61.5t178.5 -206.5q172 268 407 268q211 0 320 -154q102 -147 110 -432h-782q0 -246 89 -356.5t253 -110.5q111 0 200 61.5t117 165.5h99q-23 -76 -76 -147q-117 -160 -338 -160q-129 0 -219 48.5t-201 211.5 q-68 -141 -155.5 -200.5t-217.5 -59.5q-209 0 -335.5 156t-126.5 412zM219 541q0 -219 93.5 -354.5t256.5 -135.5q162 0 256.5 131t94.5 346q0 223 -92.5 357.5t-258.5 134.5q-162 0 -256 -131t-94 -348zM1024 586h676q0 225 -89 326.5t-239 101.5q-145 0 -246.5 -109.5 t-101.5 -318.5z" />
<glyph unicode="&#x178;" horiz-adv-x="1009" d="M-14 1434h84l432 -736l432 736h84l-481 -816v-618h-72v618zM260 1733q-2 63 62 65q27 0 47 -18t20 -45t-23.5 -47.5t-48.5 -16.5q-57 6 -57 62zM612 1733q-2 63 62 65q27 0 47 -18t20 -45t-23.5 -47.5t-47.5 -16.5q-57 6 -58 62z" />
<glyph unicode="&#x2c6;" horiz-adv-x="407" d="M-18 1217l180 141h86l172 -141h-111l-82 65h-49l-82 -65h-114z" />
<glyph unicode="&#x2dc;" horiz-adv-x="448" d="M-2 1200q0 160 104 160q41 0 124 -41t102 -41q29 0 34 16q4 10 5 45h69q0 -145 -110 -145q-47 0 -123 40t-94 40q-39 0 -39 -74h-72z" />
<glyph unicode="&#x2000;" horiz-adv-x="967" />
<glyph unicode="&#x2001;" horiz-adv-x="1935" />
<glyph unicode="&#x2002;" horiz-adv-x="967" />
<glyph unicode="&#x2003;" horiz-adv-x="1935" />
<glyph unicode="&#x2004;" horiz-adv-x="645" />
<glyph unicode="&#x2005;" horiz-adv-x="483" />
<glyph unicode="&#x2006;" horiz-adv-x="322" />
<glyph unicode="&#x2007;" horiz-adv-x="322" />
<glyph unicode="&#x2008;" horiz-adv-x="241" />
<glyph unicode="&#x2009;" horiz-adv-x="387" />
<glyph unicode="&#x200a;" horiz-adv-x="107" />
<glyph unicode="&#x2010;" horiz-adv-x="655" d="M72 545v71h512v-71h-512z" />
<glyph unicode="&#x2011;" horiz-adv-x="655" d="M72 545v71h512v-71h-512z" />
<glyph unicode="&#x2012;" horiz-adv-x="655" d="M72 545v71h512v-71h-512z" />
<glyph unicode="&#x2013;" horiz-adv-x="921" d="M0 541v96h922v-96h-922z" />
<glyph unicode="&#x2014;" horiz-adv-x="1843" d="M0 541v96h1843v-96h-1843z" />
<glyph unicode="&#x2018;" horiz-adv-x="307" d="M57 1210q1 27 15 54l96 184l82 -2l-96 -184q35 -12 41 -56q4 -31 -16.5 -53.5t-51.5 -19.5q-70 4 -70 77z" />
<glyph unicode="&#x2019;" horiz-adv-x="307" d="M57 1135l97 184q-39 10 -43 53q-2 31 17 54.5t50 21.5q72 -4 72 -80q0 -10 -2 -20.5t-12 -30.5l-97 -184z" />
<glyph unicode="&#x201a;" horiz-adv-x="454" d="M106 0v217h218v-94q0 -223 -35 -293q-51 -104 -183 -135v96q109 18 109 195v14h-109z" />
<glyph unicode="&#x201c;" horiz-adv-x="518" d="M57 1210q1 27 15 54l96 184l82 -2l-96 -184q35 -12 41 -56q4 -31 -16.5 -53.5t-51.5 -19.5q-70 4 -70 77zM266 1210q0 -74 70 -77q31 -2 52.5 20.5t17.5 52.5q-6 43 -41 56l96 184l-84 2l-94 -184q-16 -33 -17 -54z" />
<glyph unicode="&#x201d;" horiz-adv-x="518" d="M57 1135l82 -2l97 184q4 6 12 29q2 12 2 22q0 76 -72 80q-31 2 -50 -21.5t-17 -54.5q4 -43 43 -53zM266 1135l96 184q-37 10 -40 53q-2 31 18 54.5t51 21.5q68 -4 68 -80q0 -31 -15 -51l-94 -184z" />
<glyph unicode="&#x201e;" horiz-adv-x="681" d="M51 0v217h217v-111q0 -207 -32 -272q-55 -111 -185 -139v98q111 14 111 207h-111zM391 0v217h215v-96q0 -219 -35 -291q-51 -104 -180 -135v96q106 20 107 195v14h-107z" />
<glyph unicode="&#x2022;" horiz-adv-x="434" d="M49 688q-4 72 43 120t121 52t125 -47t51 -119q0 -74 -51 -124t-125 -46q-68 4 -114 50.5t-50 113.5z" />
<glyph unicode="&#x2026;" horiz-adv-x="1228" d="M131 53q-4 82 82 86q37 2 62.5 -23.5t25.5 -60.5q0 -37 -25.5 -61.5t-62.5 -22.5q-78 4 -82 82zM541 53q-4 82 82 86q37 2 62.5 -23.5t25.5 -60.5q0 -37 -26 -61.5t-62 -22.5q-78 4 -82 82zM950 53q-4 82 82 86q37 2 62.5 -23.5t25.5 -60.5q0 -37 -25.5 -61.5 t-62.5 -22.5q-78 4 -82 82z" />
<glyph unicode="&#x202f;" horiz-adv-x="387" />
<glyph unicode="&#x2039;" horiz-adv-x="681" d="M180 475v187l322 251l2 -180l-215 -166l213 -166l2 -182z" />
<glyph unicode="&#x203a;" horiz-adv-x="681" d="M180 219v182l215 166l-215 166v182l324 -253v-189z" />
<glyph unicode="&#x205f;" horiz-adv-x="483" />
<glyph unicode="&#x2122;" horiz-adv-x="1646" d="M41 1362v72h631v-72h-281v-782h-72v782h-278zM737 578l2 827q0 45 41 45q23 0 37 -20q8 -12 27 -52l327 -708l324 714q2 6 10 19q29 47 56 47q39 0 38 -45v-827h-71v708l-311 -684q-16 -35 -48 -35q-27 0 -39 27l-6 14l-18 31l-297 649v-710h-72z" />
<glyph unicode="&#x25fc;" horiz-adv-x="1085" d="M0 0v1085h1085v-1085h-1085z" />
</font>
</defs>
</svg>
